<?xml version="1.0" encoding="UTF-8" standalone="no"?>
<!-- Created with Inkscape (http://www.inkscape.org/) -->

<svg
   xmlns:dc="http://purl.org/dc/elements/1.1/"
   xmlns:cc="http://creativecommons.org/ns#"
   xmlns:rdf="http://www.w3.org/1999/02/22-rdf-syntax-ns#"
   xmlns:svg="http://www.w3.org/2000/svg"
   xmlns="http://www.w3.org/2000/svg"
   xmlns:sodipodi="http://sodipodi.sourceforge.net/DTD/sodipodi-0.dtd"
   xmlns:inkscape="http://www.inkscape.org/namespaces/inkscape"
   width="744.09448819"
   height="1052.3622047"
   id="svg2"
   version="1.1"
   inkscape:version="0.47 r22583"
   sodipodi:docname="tpf-logo-onion.svg">
  <defs
     id="defs4">
    <inkscape:perspective
       sodipodi:type="inkscape:persp3d"
       inkscape:vp_x="0 : 526.18109 : 1"
       inkscape:vp_y="0 : 1000 : 0"
       inkscape:vp_z="744.09448 : 526.18109 : 1"
       inkscape:persp3d-origin="372.04724 : 350.78739 : 1"
       id="perspective10" />
    <inkscape:perspective
       id="perspective2983"
       inkscape:persp3d-origin="0.5 : 0.33333333 : 1"
       inkscape:vp_z="1 : 0.5 : 1"
       inkscape:vp_y="0 : 1000 : 0"
       inkscape:vp_x="0 : 0.5 : 1"
       sodipodi:type="inkscape:persp3d" />
    <inkscape:perspective
       id="perspective3490"
       inkscape:persp3d-origin="0.5 : 0.33333333 : 1"
       inkscape:vp_z="1 : 0.5 : 1"
       inkscape:vp_y="0 : 1000 : 0"
       inkscape:vp_x="0 : 0.5 : 1"
       sodipodi:type="inkscape:persp3d" />
    <pattern
       patternUnits="userSpaceOnUse"
       width="718.4375"
       height="718.4375"
       patternTransform="translate(13.71875,103.125)"
       id="pattern3544">
      <path
         id="path3537"
         d="M 359.21875,0 C 160.83129,0 0,160.83129 0,359.21875 0,557.60621 160.83129,718.4375 359.21875,718.4375 557.60621,718.4375 718.4375,557.60621 718.4375,359.21875 718.4375,160.83129 557.60621,0 359.21875,0 z M 349.875,25.59375 c 7.54552,0 12.33278,123.2543 6.375,164.1875 -4.75362,32.6602 -18.59242,66.41345 -42.65625,104.03125 -43.23496,72.6072 -61.68903,138.24235 -24.34375,217.28125 9.02923,18.8175 23.35796,43.82565 31.8125,55.59375 8.65886,12.0525 14.35169,24.059 13.03125,27.5 -3.88749,10.1306 -11.72573,7.0526 -37.125,-14.6875 -32.36672,-27.7038 -52.44742,-53.6944 -66.4375,-85.9375 -16.7206,-41.2609 -18.08939,-95.692 1.0625,-136.3125 10.72536,-22.7379 32.6087,-55.97745 42.6875,-64.84375 11.19148,-9.8449 45.28382,-60.69895 55.03125,-82.09375 11.88037,-26.0766 12.19121,-28.49195 13.75,-105.71875 1.21907,-60.39489 2.81996,-79 6.8125,-79 z m -20.4375,32.8125 c 5.11103,0 6.12655,7.85465 6.09375,46.1875 -0.0547,63.0158 -4.62111,72.062 -72.71875,143.25 -78.94176,82.5244 -98.49848,114.1106 -102.53125,165.6875 -5.3966,69.0196 28.52056,127.6744 101.1875,175.0625 16.80774,10.9608 32.0555,19.9375 33.875,19.9375 1.81954,0 3.28125,2.76945 3.28125,6.15625 0,13.0946 -36.55823,3.6139 -80.125,-20.75 C 120.87649,539.3433 81.14975,430.9704 126.125,341.875 c 14.71663,-29.1535 52.83656,-68.23305 98.3125,-100.78125 62.89666,-45.0165 85.63941,-67.2505 94.0625,-91.9375 2.61866,-7.6749 4.78125,-31.23115 4.78125,-52.34375 0,-31.38472 1.12169,-38.40625 6.15625,-38.40625 z m 40.71875,17.0625 c 1.08763,-0.17976 2.45943,3.23884 4.125,9.875 2.11741,8.43649 4.32408,9.93678 11.3125,7.71875 7.31984,-2.32325 8.20005,-1.54065 5.46875,4.90625 -1.78438,4.2118 -4.12606,17.9878 -5.1875,30.625 -1.6348,19.4644 -0.36684,25.4269 8.3125,39 14.38979,22.5034 26.68587,32.8575 85.09375,71.625 66.86201,44.3788 98.80414,75.1672 117.6875,113.375 21.2798,44.2956 18.28119,99.95985 -1.84375,144.46875 -23.17422,46.7558 -57.95303,80.56625 -109.84375,106.78125 -35.64158,18.006 -53.42945,19.5092 -73.3125,6.25 -8.78866,-5.8608 -23.5696,-12.8013 -32.84375,-15.4375 C 358.30617,588.73865 351.87352,576.9723 336.8125,517.5 320.35913,447.4947 323.72665,377.47565 346.125,308.84375 l 20.09375,-75.9375 0.0937,-79.03125 c 0.052,-53.9665 1.06426,-77.94685 3.84375,-78.40625 z m 19.28125,123.875 c -0.21523,0.0437 -0.33575,0.29535 -0.34375,0.71875 -0.16758,8.3706 16.20537,28.35595 40.84375,49.84375 59.30744,51.7239 96.8149,110.59555 101.34375,159.09375 4.93417,52.8391 -12.23721,107.3053 -48.34375,153.25 -11.12722,14.1591 -19.18538,25.75 -17.90625,25.75 7.11075,0 26.60568,-13.8952 41.3125,-29.4375 26.26871,-27.761 42.07347,-52.7195 53,-83.6875 31.94235,-103.1963 -32.38165,-162.3257 -110.375,-221.4375 -25.1128,-18.82 -48.82761,-39.44335 -52.71875,-45.84375 -3.16159,-5.2002 -5.87984,-8.4391 -6.8125,-8.25 z M 359.5,617.75 c 0.16929,-0.0137 0.35573,-0.005 0.53125,0 1.87218,0.0582 4.10041,1.202 6.71875,3.375 4.44559,3.6895 5.81141,11.5096 4.9375,28.0625 -1.06838,20.2362 -2.29248,23.12455 -10.4375,24.28125 -8.76727,1.2452 -9.25,-0.0687 -9.25,-25.4375 0,-20.21326 2.25208,-29.8578 7.5,-30.28125 z m -27.875,7.5625 c 2.28835,0.0473 4.84758,1.92115 7.84375,5.53125 5.32776,6.4196 1.61032,16.73345 -10.3125,28.65625 -3.56284,3.5629 -10.0518,6.5 -14.40625,6.5 -9.17041,0 -10.74041,-11.50165 -2.03125,-14.84375 3.22901,-1.239 7.76435,-7.62625 10.0625,-14.21875 2.74499,-7.8743 5.49924,-11.694 8.84375,-11.625 z m 56,1.6875 c 5.04158,0 25.96875,28.2518 25.96875,35.0625 0,8.1723 -16.19751,3.4696 -24.53125,-7.125 C 380.04756,643.4769 379.20438,627 387.625,627 z"
         style="fill:#164450;fill-opacity:1;stroke:none" />
    </pattern>
  </defs>
  <sodipodi:namedview
     id="base"
     pagecolor="#ffffff"
     bordercolor="#666666"
     borderopacity="1.0"
     inkscape:pageopacity="0.0"
     inkscape:pageshadow="2"
     inkscape:zoom="0.38631675"
     inkscape:cx="320.09434"
     inkscape:cy="218.38865"
     inkscape:document-units="px"
     inkscape:current-layer="layer1"
     showgrid="false"
     inkscape:window-width="1920"
     inkscape:window-height="1152"
     inkscape:window-x="0"
     inkscape:window-y="0"
     inkscape:window-maximized="1" />
  <metadata
     id="metadata7">
    <rdf:RDF>
      <cc:Work
         rdf:about="">
        <dc:format>image/svg+xml</dc:format>
        <dc:type
           rdf:resource="http://purl.org/dc/dcmitype/StillImage" />
        <dc:title></dc:title>
      </cc:Work>
    </rdf:RDF>
  </metadata>
  <g
     inkscape:label="Layer 1"
     inkscape:groupmode="layer"
     id="layer1">
    <path
       sodipodi:type="arc"
       style="fill:#39457e;fill-opacity:1;stroke:none"
       id="path3509"
       sodipodi:cx="1094.1101"
       sodipodi:cy="459.77637"
       sodipodi:rx="220.1033"
       sodipodi:ry="220.1033"
       d="m 1314.2134,459.77637 a 220.1033,220.1033 0 1 1 -440.20659,0 220.1033,220.1033 0 1 1 440.20659,0 z"
       transform="matrix(1.6320167,0,0,-1.6320167,-2212.6658,1212.7151)" />
    <path
       sodipodi:nodetypes="csssccsssccsccsssssssssscccccccsssccssssssccsccssssssccssssccsssssccssc"
       id="path3511"
       d="m -436.40625,928.71875 c -3.99254,0 -5.59343,18.60506 -6.8125,78.99995 -1.55879,77.2268 -1.86963,79.6422 -13.75,105.7188 -9.74743,21.3948 -43.83977,72.2488 -55.03125,82.0937 -10.0788,8.8663 -31.96214,42.1059 -42.6875,64.8438 -19.15189,40.6205 -17.7831,95.0516 -1.0625,136.3125 13.99008,32.2431 34.07078,58.2337 66.4375,85.9375 25.39927,21.7401 33.23751,24.8181 37.125,14.6875 1.32044,-3.441 -4.37239,-15.4475 -13.03125,-27.5 -8.45454,-11.7681 -22.78327,-36.7763 -31.8125,-55.5938 -37.34528,-79.0389 -18.89121,-144.674 24.34375,-217.2812 24.06383,-37.6178 37.90263,-71.3711 42.65625,-104.0313 5.95778,-40.9332 1.17052,-164.18745 -6.375,-164.18745 z m -20.4375,32.8125 c -5.03456,0 -6.15625,7.02153 -6.15625,38.40625 0,21.1126 -2.16259,44.6688 -4.78125,52.3437 -8.42309,24.687 -31.16584,46.921 -94.0625,91.9375 -45.47594,32.5482 -83.59587,71.6278 -98.3125,100.7813 -44.97525,89.0954 -5.24851,197.4683 92.375,252.0625 43.56677,24.3639 80.125,33.8446 80.125,20.75 0,-3.3868 -1.46171,-6.1563 -3.28125,-6.1563 -1.8195,0 -17.06726,-8.9767 -33.875,-19.9375 -72.66694,-47.3881 -106.5841,-106.0429 -101.1875,-175.0625 4.03277,-51.5769 23.58949,-83.1631 102.53125,-165.6875 68.09764,-71.188 72.66404,-80.2342 72.71875,-143.25 0.0328,-38.33285 -0.98272,-46.18745 -6.09375,-46.18745 z m 40.71875,17.0625 c -2.77949,0.4594 -3.79173,24.43975 -3.84375,78.40625 l -0.0937,79.0312 -20.09375,75.9375 c -22.39835,68.6319 -25.76587,138.651 -9.3125,208.6563 15.06102,59.4723 21.49367,71.2386 42.3125,77.1562 9.27415,2.6362 24.05509,9.5767 32.84375,15.4375 19.88305,13.2592 37.67092,11.756 73.3125,-6.25 51.89072,-26.215 86.66948,-60.0254 109.8437,-106.7812 20.12494,-44.5089 23.12355,-100.1732 1.84375,-144.4688 -18.88336,-38.2078 -50.82549,-68.9962 -117.6875,-113.375 -58.40788,-38.7675 -70.70396,-49.1216 -85.09375,-71.625 -8.67934,-13.5731 -9.9473,-19.5356 -8.3125,-39 1.06144,-12.6372 3.40312,-26.4132 5.1875,-30.625 2.7313,-6.4469 1.85109,-7.22945 -5.46875,-4.9062 -6.98842,2.21803 -9.19509,0.71774 -11.3125,-7.71875 -1.66557,-6.63616 -3.03737,-10.05476 -4.125,-9.875 z m 19.28125,123.87495 c 0.93266,-0.1891 3.65091,3.0498 6.8125,8.25 3.89114,6.4004 27.60595,27.0238 52.71875,45.8438 77.99335,59.1118 142.31735,118.2412 110.375,221.4375 -10.92653,30.968 -26.73129,55.9265 -53,83.6875 -14.70682,15.5423 -34.20175,29.4375 -41.3125,29.4375 -1.27913,0 6.77903,-11.5909 17.90625,-25.75 36.10654,-45.9447 53.27792,-100.4109 48.34375,-153.25 -4.52885,-48.4982 -42.03631,-107.3699 -101.34375,-159.0938 -24.63838,-21.4878 -41.01133,-41.4731 -40.84375,-49.8437 0.008,-0.4234 0.12852,-0.6751 0.34375,-0.7188 z M -426.25,1520.875 c -5.61655,-0.1747 -8.03125,9.4159 -8.03125,30.2812 0,25.3688 0.48273,26.6827 9.25,25.4375 8.14502,-1.1567 9.36912,-4.045 10.4375,-24.2812 0.87391,-16.5529 -0.49191,-24.373 -4.9375,-28.0625 -2.61834,-2.173 -4.84657,-3.3168 -6.71875,-3.375 z m -28.40625,7.5625 c -3.34451,-0.069 -6.09876,3.7507 -8.84375,11.625 -2.29815,6.5925 -6.83349,12.9797 -10.0625,14.2187 -8.70916,3.3421 -7.13916,14.8438 2.03125,14.8438 4.35445,0 10.84341,-2.9371 14.40625,-6.5 11.92282,-11.9228 15.64026,-22.2367 10.3125,-28.6563 -2.99617,-3.6101 -5.5554,-5.4839 -7.84375,-5.5312 z m 56,1.6875 c -8.42062,0 -7.57744,16.4769 1.4375,27.9375 8.33374,10.5946 24.53125,15.2973 24.53125,7.125 0,-6.8107 -20.92717,-35.0625 -25.96875,-35.0625 z"
       style="fill:#39457e;fill-opacity:1;stroke:none" />
    <path
       style="fill:#ffffff;fill-opacity:1;stroke:none"
       d="m -436.40625,128.71875 c -3.99254,0 -5.59343,18.60506 -6.8125,78.99995 -1.55879,77.2268 -1.86963,79.6422 -13.75,105.7188 -9.74743,21.3948 -43.83977,72.2488 -55.03125,82.0937 -10.0788,8.8663 -31.96214,42.1059 -42.6875,64.8438 -19.15189,40.6205 -17.7831,95.0516 -1.0625,136.3125 13.99008,32.2431 34.07078,58.2337 66.4375,85.9375 25.39927,21.7401 33.23751,24.8181 37.125,14.6875 1.32044,-3.441 -4.37239,-15.4475 -13.03125,-27.5 -8.45454,-11.7681 -22.78327,-36.7763 -31.8125,-55.5938 -37.34528,-79.0389 -18.89121,-144.674 24.34375,-217.2812 24.06383,-37.6178 37.90263,-71.3711 42.65625,-104.0313 5.95778,-40.9332 1.17052,-164.18745 -6.375,-164.18745 z m -20.4375,32.8125 c -5.03456,0 -6.15625,7.02153 -6.15625,38.40625 0,21.1126 -2.16259,44.6688 -4.78125,52.3437 -8.42309,24.687 -31.16584,46.921 -94.0625,91.9375 -45.47594,32.5482 -83.59587,71.6278 -98.3125,100.7813 -44.97525,89.0954 -5.24851,197.4683 92.375,252.0625 43.56677,24.3639 80.125,33.8446 80.125,20.75 0,-3.3868 -1.46171,-6.1563 -3.28125,-6.1563 -1.8195,0 -17.06726,-8.9767 -33.875,-19.9375 C -597.47944,644.3306 -631.3966,585.6758 -626,516.6562 c 4.03277,-51.5769 23.58949,-83.1631 102.53125,-165.6875 68.09764,-71.188 72.66404,-80.2342 72.71875,-143.25 0.0328,-38.33285 -0.98272,-46.18745 -6.09375,-46.18745 z m 40.71875,17.0625 c -2.77949,0.4594 -3.79173,24.43975 -3.84375,78.40625 l -0.0937,79.0312 -20.09375,75.9375 c -22.39835,68.6319 -25.76587,138.651 -9.3125,208.6563 15.06102,59.4723 21.49367,71.2386 42.3125,77.1562 9.27415,2.6362 24.05509,9.5767 32.84375,15.4375 19.88305,13.2592 37.67092,11.756 73.3125,-6.25 51.89072,-26.215 86.66948,-60.0254 109.8437,-106.7812 20.12494,-44.5089 23.12355,-100.1732 1.84375,-144.4688 -18.88336,-38.2078 -50.82549,-68.9962 -117.6875,-113.375 -58.40788,-38.7675 -70.70396,-49.1216 -85.09375,-71.625 -8.67934,-13.5731 -9.9473,-19.5356 -8.3125,-39 1.06144,-12.6372 3.40312,-26.4132 5.1875,-30.625 2.7313,-6.4469 1.85109,-7.22945 -5.46875,-4.9062 -6.98842,2.21803 -9.19509,0.71774 -11.3125,-7.71875 -1.66557,-6.63616 -3.03737,-10.05476 -4.125,-9.875 z m 19.28125,123.87495 c 0.93266,-0.1891 3.65091,3.0498 6.8125,8.25 3.89114,6.4004 27.60595,27.0238 52.71875,45.8438 77.99335,59.1118 142.31735,118.2412 110.375,221.4375 -10.92653,30.968 -26.73129,55.9265 -53,83.6875 -14.70682,15.5423 -34.20175,29.4375 -41.3125,29.4375 -1.27913,0 6.77903,-11.5909 17.90625,-25.75 36.10654,-45.9447 53.27792,-100.4109 48.34375,-153.25 -4.52885,-48.4982 -42.03631,-107.3699 -101.34375,-159.0938 -24.63838,-21.4878 -41.01133,-41.4731 -40.84375,-49.8437 0.008,-0.4234 0.12852,-0.6751 0.34375,-0.7188 z M -426.25,720.875 c -5.61655,-0.1747 -8.03125,9.4159 -8.03125,30.2812 0,25.3688 0.48273,26.6827 9.25,25.4375 8.14502,-1.1567 9.36912,-4.045 10.4375,-24.2812 0.87391,-16.5529 -0.49191,-24.373 -4.9375,-28.0625 -2.61834,-2.173 -4.84657,-3.3168 -6.71875,-3.375 z m -28.40625,7.5625 c -3.34451,-0.069 -6.09876,3.7507 -8.84375,11.625 -2.29815,6.5925 -6.83349,12.9797 -10.0625,14.2187 -8.70916,3.3421 -7.13916,14.8438 2.03125,14.8438 4.35445,0 10.84341,-2.9371 14.40625,-6.5 11.92282,-11.9228 15.64026,-22.2367 10.3125,-28.6563 -2.99617,-3.6101 -5.5554,-5.4839 -7.84375,-5.5312 z m 56,1.6875 c -8.42062,0 -7.57744,16.4769 1.4375,27.9375 8.33374,10.5946 24.53125,15.2973 24.53125,7.125 0,-6.8107 -20.92717,-35.0625 -25.96875,-35.0625 z"
       id="path3535"
       sodipodi:nodetypes="csssccsssccsccsssssssssscccccccsssccssssssccsccssssssccssssccsssssccssc" />
    <path
       style="fill:#39457e;fill-opacity:1;stroke:none"
       d="M 372.9375 103.125 C 174.55004 103.125 13.71875 263.95629 13.71875 462.34375 C 13.71875 660.73121 174.55004 821.5625 372.9375 821.5625 C 571.32496 821.5625 732.15625 660.73121 732.15625 462.34375 C 732.15625 263.95629 571.32496 103.125 372.9375 103.125 z M 363.59375 128.71875 C 371.13927 128.71875 375.92653 251.97305 369.96875 292.90625 C 365.21513 325.56645 351.37633 359.3197 327.3125 396.9375 C 284.07754 469.5447 265.62347 535.17985 302.96875 614.21875 C 311.99798 633.03625 326.32671 658.0444 334.78125 669.8125 C 343.44011 681.865 349.13294 693.8715 347.8125 697.3125 C 343.92501 707.4431 336.08677 704.3651 310.6875 682.625 C 278.32078 654.9212 258.24008 628.9306 244.25 596.6875 C 227.5294 555.4266 226.16061 500.9955 245.3125 460.375 C 256.03786 437.6371 277.9212 404.39755 288 395.53125 C 299.19148 385.68635 333.28382 334.8323 343.03125 313.4375 C 354.91162 287.3609 355.22246 284.94555 356.78125 207.71875 C 358.00032 147.32386 359.60121 128.71875 363.59375 128.71875 z M 343.15625 161.53125 C 348.26728 161.53125 349.2828 169.3859 349.25 207.71875 C 349.19529 270.73455 344.62889 279.78075 276.53125 350.96875 C 197.58949 433.49315 178.03277 465.07935 174 516.65625 C 168.6034 585.67585 202.52056 644.33065 275.1875 691.71875 C 291.99524 702.67955 307.243 711.65625 309.0625 711.65625 C 310.88204 711.65625 312.34375 714.4257 312.34375 717.8125 C 312.34375 730.9071 275.78552 721.4264 232.21875 697.0625 C 134.59524 642.4683 94.8685 534.0954 139.84375 445 C 154.56038 415.8465 192.68031 376.76695 238.15625 344.21875 C 301.05291 299.20225 323.79566 276.96825 332.21875 252.28125 C 334.83741 244.60635 337 221.0501 337 199.9375 C 337 168.55278 338.12169 161.53125 343.15625 161.53125 z M 383.875 178.59375 C 384.96263 178.41399 386.33443 181.83259 388 188.46875 C 390.11741 196.90524 392.32408 198.40553 399.3125 196.1875 C 406.63234 193.86425 407.51255 194.64685 404.78125 201.09375 C 402.99687 205.30555 400.65519 219.08155 399.59375 231.71875 C 397.95895 251.18315 399.22691 257.14565 407.90625 270.71875 C 422.29604 293.22215 434.59212 303.57625 493 342.34375 C 559.86201 386.72255 591.80414 417.51095 610.6875 455.71875 C 631.9673 500.01435 628.96869 555.6786 608.84375 600.1875 C 585.66953 646.9433 550.89072 680.75375 499 706.96875 C 463.35842 724.97475 445.57055 726.47795 425.6875 713.21875 C 416.89884 707.35795 402.1179 700.41745 392.84375 697.78125 C 372.02492 691.86365 365.59227 680.0973 350.53125 620.625 C 334.07788 550.6197 337.4454 480.60065 359.84375 411.96875 L 379.9375 336.03125 L 380.03125 257 C 380.08327 203.0335 381.09551 179.05315 383.875 178.59375 z M 403.15625 302.46875 C 402.94102 302.51245 402.8205 302.7641 402.8125 303.1875 C 402.64492 311.5581 419.01787 331.54345 443.65625 353.03125 C 502.96369 404.75515 540.47115 463.6268 545 512.125 C 549.93417 564.9641 532.76279 619.4303 496.65625 665.375 C 485.52903 679.5341 477.47087 691.125 478.75 691.125 C 485.86075 691.125 505.35568 677.2298 520.0625 661.6875 C 546.33121 633.9265 562.13597 608.968 573.0625 578 C 605.00485 474.8037 540.68085 415.6743 462.6875 356.5625 C 437.5747 337.7425 413.85989 317.11915 409.96875 310.71875 C 406.80716 305.51855 404.08891 302.27965 403.15625 302.46875 z M 373.21875 720.875 C 373.38804 720.86134 373.57448 720.86954 373.75 720.875 C 375.62218 720.9332 377.85041 722.077 380.46875 724.25 C 384.91434 727.9395 386.28016 735.7596 385.40625 752.3125 C 384.33787 772.5487 383.11377 775.43705 374.96875 776.59375 C 366.20148 777.83895 365.71875 776.52505 365.71875 751.15625 C 365.71875 730.94299 367.97083 721.29845 373.21875 720.875 z M 345.34375 728.4375 C 347.6321 728.4848 350.19133 730.35865 353.1875 733.96875 C 358.51526 740.38835 354.79782 750.7022 342.875 762.625 C 339.31216 766.1879 332.8232 769.125 328.46875 769.125 C 319.29834 769.125 317.72834 757.62335 326.4375 754.28125 C 329.66651 753.04225 334.20185 746.655 336.5 740.0625 C 339.24499 732.1882 341.99924 728.3685 345.34375 728.4375 z M 401.34375 730.125 C 406.38533 730.125 427.3125 758.3768 427.3125 765.1875 C 427.3125 773.3598 411.11499 768.6571 402.78125 758.0625 C 393.76631 746.6019 392.92313 730.125 401.34375 730.125 z "
       id="path5039" />
  </g>
</svg>
